<svg xmlns="http://www.w3.org/2000/svg" xml:space="preserve" width="647.69263" height="390.25381" viewBox="0 0 647.69262 390.2538"><g style="stroke-width:.173164"><path d="M41.405 767.27a4.17 4.17 0 0 1-3.101-1.432c-.803-.91-1.21-2.155-1.21-3.7 0-2.134.793-4.864 1.971-6.793.551-.9 1.389-1.705 2.249-2.383-.043-.232-.128-.45-.128-.691q0-.209.034-.414l.135-.807q.017-.1.041-.196l.05-.202c.285-1.203 1.595-3.342 3.976-5.173-.025-.2-.075-.373-.075-.598l.005-.253c.072-1.68 1.335-4.4 3.54-6.315a10.3 10.3 0 0 1 2.181-1.436l.078-.484q.028-.176.081-.346a6.94 6.94 0 0 1 2.547-3.567c.04-.652.184-2.14 1.492-3.295.477-.422 1.038-.692 1.647-.875.885-1.654 2.24-2.656 4.039-3.007v-2.713a6.01 6.01 0 0 1 6.003-6.003 6.01 6.01 0 0 1 6.003 6.003v10.63l12.588.003-.001-10.633a6.01 6.01 0 0 1 6.003-6.003 6.01 6.01 0 0 1 6.003 6.003v2.738c1.697.385 2.975 1.39 3.833 2.987.615.183 1.175.452 1.648.87 1.284 1.135 1.444 2.594 1.489 3.293a6.95 6.95 0 0 1 2.549 3.568q.053.171.081.348l.077.483c.788.39 1.52.862 2.182 1.436 2.207 1.916 3.47 4.637 3.537 6.225l.008.343c0 .226-.051.397-.076.599 2.383 1.833 3.695 3.98 3.986 5.212l.042.17q.024.092.04.186l.135.807q.035.206.035.415c0 .242-.086.46-.129.692.86.677 1.697 1.482 2.248 2.382 1.18 1.93 1.972 4.66 1.972 6.794 0 1.544-.407 2.789-1.208 3.699q-.001 0-.002.002c-.8.904-1.9 1.413-3.097 1.43-1.854.025-3.295-1.134-3.982-1.802-3.54-2.925-8.799-4.304-12.279-5.216l-.78-.207c-1.282-.34-2.349-.683-3.299-1.067-1.12 1.534-2.92 2.544-4.96 2.544h-6.55c-.189.557-.491 1.392-1.278 2.126-1.434 1.33-3.277 1.615-4.25 1.667l-.126.004a5 5 0 0 1-.367-.004c-.97-.053-2.809-.339-4.234-1.662-.794-.738-1.097-1.579-1.284-2.13h-6.814c-2.041 0-3.84-1.01-4.961-2.544-.95.383-2.015.726-3.295 1.066l-.777.205c-3.485.914-8.744 2.293-12.285 5.218-.687.67-2.125 1.828-3.979 1.803m3.363-11.321c-.205-.011-.39-.072-.587-.112.186.067.386.09.587.112m5.559-11.135a1.25 1.25 0 0 0-.447-.58c-.003 0-.393-.228-.393-.228.323.189.597.492.84.808m5.672-7.48a.94.94 0 0 0-.138-.436l-.42-.461c.224.247.415.561.558.897m-2.298-4.215q.002 0 .003.006zm43.392 20.466c.47.51 1.681.997 4.051 1.626l.774.205c3.9 1.023 9.801 2.57 14.192 6.198q.03.028.059.055c-.105-1.19-.57-2.696-1.195-3.717-.226-.37-1.095-1.267-2.91-2.27a2.5 2.5 0 0 1-1.206-2.833c.15-.563.488-1.031.932-1.36-.426-.7-1.427-1.961-3.26-2.937-.8-.426-1.124-1.342-1.14-2.25v-.032c0-.513.24-1.003.567-1.437v-.096c-.055-.26-.607-1.595-1.82-2.648-.665-.578-1.445-.97-2.383-1.2-.858-.21-1.357-1.026-1.615-1.87a2 2 0 0 1-.08-.569c0-.323.088-.657.207-.975l-.003-.016c-.173-.49-.494-.896-.891-1.082-1.07-.325-1.762-1.814-1.762-3.03 0-.093.018-.178.026-.268l-.032.002c-.013.058-.03.138-.03.144l-.007-.142.005.148-.012-.148a2.54 2.54 0 0 1-1.87-.776 2.54 2.54 0 0 1-.692-1.66c-.194-.37-.432-.614-1.692-.487a2.5 2.5 0 0 1-2.75-2.487v-5.083a1.004 1.004 0 0 0-2.006 0l.001 12.103-.002.35c.006.757-.318 1.635-.903 2.114l-.233.19c-.061.05-.12.094-.186.139-.73.49-1.615.738-2.632.738H71.979c-1.133 0-2.097-.305-2.865-.906-.022-.018-.857-1.066-.857-1.066-.32-.402-.221-.43-.253-.942l-.035-.569a3 3 0 0 1-.004-.151v-12a1.004 1.004 0 0 0-2.007 0v5.105a2.5 2.5 0 0 1-2.805 2.482c-1.387-.17-1.645.093-1.837.459a2.5 2.5 0 0 1-.67 1.668 2.5 2.5 0 0 1-1.899.784l-.01.146-.031-.148-.033-.001c.01.106.03.207.03.318 0 1.2-.62 2.631-1.674 2.951l-.137.042c-.355.168-.674.573-.847 1.062l-.002.016c.118.32.206.653.206.977 0 .197-.026.39-.081.57-.258.844-.756 1.66-1.613 1.869-.938.229-1.718.621-2.384 1.2-1.205 1.045-1.753 2.364-1.824 2.742.328.435.569.925.569 1.438v.034c-.018.907-.339 1.823-1.14 2.249-1.832.976-2.834 2.237-3.259 2.937a2.49 2.49 0 0 1 1.018 2.004 2.5 2.5 0 0 1-1.29 2.188c-1.816 1.004-2.685 1.9-2.912 2.272-.623 1.019-1.089 2.524-1.193 3.715q.029-.028.057-.054c4.393-3.63 10.295-5.177 14.2-6.2l.77-.204c2.366-.628 3.577-1.115 4.047-1.626.697-.758 1.784-.968 2.744-.594.96.375 1.588 1.344 1.588 2.374 0 .638.52 1.157 1.158 1.157h7.724c.318 0 .634.06.93.18 2.087.835 2.606 2.377 2.854 3.118l.076.21c.205.142.594.262.994.288l-.015.003c-.053 0-.073.002-.148.006 1.377-.078 2.64 1.237 2.563-.14-.053-.966-.554-.55-1.319-.187l-.12.146.041-.113-.034.015c.01-.006.026-.011.035-.018l.077-.208c.249-.743.766-2.285 2.857-3.12.295-.119.61-.18.928-.18h7.459c.638 0 1.157-.519 1.157-1.157 0-1.03.628-1.999 1.588-2.373s2.046-.165 2.744.594m16.446 2.364c.2-.022.4-.045.585-.112-.195.04-.38.1-.585.112m-5.115-11.714c-.257.19-.358.394-.41.543.237-.299.494-.592.805-.772zm-35.433-9.256a4 4 0 0 1-.006-.236v-.13c0-.06-.014-.105-.022-.154v.054zm-14.345-2.145.004-.005-.008-.036q.003.021.004.042m43.802 4.06a.9.9 0 0 0-.14.438c.143-.337.335-.651.561-.899zm2.153-3.768.002-.006zm-4.942-.291c.002-.014 0-.03.004-.043l-.008.037zm-25.233 28.686h-.085zm4.84-1.2.016-.004c.008 0 .015.004.023.004zm0 0h-.007zm.015-.004c.357-.023.675-.14.968-.27-.216.136-.575.246-.966.27zm-20.546-27.084.018.074c0-.008-.018-.065-.028.079zm40.836-.003v.006l.001-.011.008.157c-.01-.2-.041-.002-.01-.151m-40.817.077" style="fill:#fff;fill-opacity:1;fill-rule:nonzero;stroke:none;stroke-width:.173164" transform="matrix(7.69982 0 0 -7.69982 -285.623 5907.841)"/><path d="M62.481 743.86c-1.015-.813-1.326-2.161-.6-3.24l1.256-1.87c.697-1.037 2.32-1.164 3.446-.614.674.369 1.12 1.112 1.249 1.87q.033.196.033.397c0 .669-.267 1.37-.718 1.846l-1.2 1.27c-.894.945-2.45 1.153-3.466.34m3.905-1.484c.019-.116.106-.225.106-.34 0-.734-.36-1.454-.996-1.965-.633-.506-1.467-.57-2.228-.353-.045.203-.11.405-.11.609q0 .198.03.39c.104.669.506 1.31 1.051 1.722.72.291 1.499.292 2.147-.064m.197-4.238c-.015-.008-.022-.026-.037-.034l.092.047c-.017-.008-.039-.004-.055-.013" style="fill:#fff;fill-opacity:1;fill-rule:nonzero;stroke:none;stroke-width:.173164" transform="matrix(7.69982 0 0 -7.69982 -285.623 5907.841)"/><path d="M63.04 755.007c-.96-.452-1.524-1.518-1.415-2.574v-.005c.096-.92.24-2.308 1.272-4.832.72-1.756 2.16-3.523 4.285-5.252a2.5 2.5 0 0 1 4.078 1.939v5.69c0 1.206-.288 2.25-.855 3.103-.464.695-1.339 1.13-2.175 1.13h-1.527c-.417 0-.694.22-.823.35-.745.756-1.88.904-2.84.451zM92.425 754.555a1.15 1.15 0 0 0-.821-.348l-.955.002c-.137 0-.295-.012-.431-.035l-.408-.067a2.52 2.52 0 0 1-1.734-1.162c-.507-.827-.764-1.827-.764-2.973V744.5a2.5 2.5 0 0 1 4.11-1.913c1.961 1.65 3.303 3.336 3.988 5.009 1.035 2.534 1.178 3.922 1.272 4.84.108 1.057-.456 2.12-1.417 2.572-.96.452-2.096.304-2.84-.453m3.564-3.507a2.7 2.7 0 0 0-.857-.583c.282.204.608.33.857.583" style="fill:#fff;fill-opacity:1;fill-rule:nonzero;stroke:none;stroke-width:.173164" transform="matrix(7.69982 0 0 -7.69982 -285.623 5907.841)"/><path d="m92.359 743.518-1.152-1.224c-.561-.596-.863-1.509-.694-2.31.17-.8.651-1.548 1.405-1.866l.112-.048c1.103-.466 2.542-.215 3.209.78l1.187 1.77c.724 1.08.414 2.432-.603 3.243-1.018.811-2.572.602-3.464-.345m1.674-.957a2.66 2.66 0 0 0 1.169-1.711q.042-.225.042-.455c0-.224-.069-.444-.125-.664-.78-.249-1.65-.188-2.306.335-.64.51-.999 1.232-.999 1.966 0 .122.09.235.11.356.63.354 1.395.398 2.11.173M73.425 737.236a4.83 4.83 0 0 1-4.826-4.826v-8.84a4.83 4.83 0 0 1 4.826-4.826h11.457a4.83 4.83 0 0 1 4.827 4.826v8.84a4.83 4.83 0 0 1-4.827 4.826zm11.284-5v-8.492h-11.11v8.492z" style="fill:#fff;fill-opacity:1;fill-rule:nonzero;stroke:none;stroke-width:.173164" transform="matrix(7.69982 0 0 -7.69982 -285.623 5907.841)"/><path d="M82.265 732.434h-6.223a2.5 2.5 0 0 1-2.5-2.5v-3.54a2.5 2.5 0 0 1 2.5-2.5h6.223a2.5 2.5 0 0 1 2.5 2.5v3.54a2.5 2.5 0 0 1-2.5 2.5" style="fill:#fff;fill-opacity:1;fill-rule:nonzero;stroke:none;stroke-width:.173164" transform="matrix(7.69982 0 0 -7.69982 -285.623 5907.841)"/><path d="M118.129 764.184c-.334.378-.77.58-1.26.587-1.1.014-2.138-1.006-2.351-1.229-3.964-3.276-9.545-4.74-13.24-5.709l-.775-.205c-3.728-.99-5.041-1.705-5.856-3.186-.334-.609-.392-1.164-.452-1.75-.085-.825-.201-1.953-1.1-4.15-1.433-3.504-6.68-6.427-6.733-6.457l-.276-.15a.59.59 0 0 1-.302-.51c0-.156.064-.307.176-.417l2.62-2.548a.58.58 0 0 1 .579-.137l.131.04c2.136.668 3.773 2.02 5.028 3.601a57 57 0 0 0-3.35-4.653l-.037-.047a.6.6 0 0 1-.12-.26l-.4-2.152a1 1 0 0 1-.009-.1l-.09-7.544a.582.582 0 0 1 1.058-.334l.435.62c-.025-.033.572.543 2.881.219 3.427-.48 4.227 1.15 4.61 1.934l.068.135c0 .006.152.604.152.604l-.034.206.146-.015c.755-.052 1.328.106 1.752.48.6.53.64 1.286.665 1.736l.02.245-.001-.004.011.182c0 .279-.08.508-.184.712.183.055.367.103.542.185 1.06.497 1.88 1.473 2.254 2.675l.098.616c0 .33-.09.633-.27.9-.045.065-.117.1-.169.157 1.272.31 2.43.871 3.43 1.74 1.827 1.586 2.645 3.677 2.678 4.443q.004.1.005.237c0 .4-.065 1.007-.544 1.361-.068.05-.14.072-.21.104 3.225 1.717 4.572 4.245 4.731 4.921l.05.197.135.806c0 .34-.107.626-.318.849-.295.31-.695.38-1.03.375 1.75.967 3.204 2.125 3.834 3.155.945 1.545 1.605 3.803 1.605 5.49 0 .918-.197 1.606-.584 2.045m-11.66-11.123h-.084a.58.58 0 0 1-.373-.135l-.065-.055c-.423-.353-.59-.818-.447-1.246.105-.308.391-.683 1.163-.718.95-.044 5.023.663 6.23.897l-.039-.155c-.157-.667-2.789-5.098-9.75-5.32l-.086-.002a.59.59 0 0 1-.384-.161l-.065-.062c-.198-.19-.38-.496-.38-.848q-.002-.12.03-.247c.057-.23.25-.646.901-.828.81-.227 4.627.285 5.708.57v-.036c-.031-.329-.639-1.998-2.12-3.283-1.465-1.273-3.312-1.81-5.49-1.595l-.056.005a.6.6 0 0 1-.253-.032l-.05-.018c-.52-.192-.822-.552-.832-.988v-.019c0-.398.254-.74.682-.918.218-.09.47-.114.899-.146.914-.072 1.437-.184 1.557-.332-.012 0-.032-.117-.032-.117-.238-.767-.745-1.382-1.392-1.685-.616-.29-1.346-.274-2.114.043-.258.095-.515.225-.579.278a.95.95 0 0 1-1.344.104 1 1 0 0 1-.327-.747c0-.301.12-.603.347-.872.523-.623 1.694-.997 2.65-1.116.028-.03.07-.064.075-.078l-.028-.303c-.011-.198-.03-.54-.12-.619-.012-.01-.131-.106-.561-.075-1.503.101-2.01.25-2.015.252a1 1 0 0 1-.341.035c-.401-.045-.722-.296-.837-.654a1 1 0 0 1-.042-.278c0-.231.089-.532.428-.834a.6.6 0 0 1 .098-.07l.516-.296.225-.12c-.296-.577-.76-1.205-2.86-.911-1.192.167-2.17.14-2.947-.051.014 1.24.06 5.282.062 5.368l.337 1.803c.683.856 3.986 5.07 5.289 8.276.816 2.011 1.286 3.962 1.286 5.351 0 .512-.067.923-.198 1.223-.181.414-.462.59-.664.667-.478.18-.826.074-1.033-.045-.479-.277-.565-.795-.627-1.174l-.066-.34-.024-.105c-.572-2.51-2.398-8.421-7.087-10.209l-1.158 1.127c1.75 1.1 5.251 3.605 6.52 6.71h.001c.987 2.413 1.117 3.675 1.212 4.598.055.524.083.813.26 1.132.432.786 1.002 1.377 4.846 2.397l.77.203c3.838 1.007 9.639 2.528 13.905 6.063l.052.05c.347.368.925.776 1.2.772.022 0 .029 0 .06-.034.474-.539.056-3.57-1.19-5.61-1.158-1.896-5.943-4.437-9.249-4.437zM72.517 741.503a.59.59 0 0 1-.297.432l-.276.151c-.052.029-5.298 2.952-6.733 6.456-.898 2.197-1.014 3.325-1.1 4.148-.06.588-.116 1.143-.452 1.752-.815 1.481-2.128 2.197-5.854 3.186l-.775.205c-3.697.969-9.277 2.433-13.241 5.709-.213.223-1.25 1.243-2.35 1.229a1.68 1.68 0 0 1-1.26-.586c-.388-.44-.584-1.128-.584-2.047 0-1.686.66-3.944 1.604-5.49.63-1.029 2.084-2.187 3.835-3.154-.335.005-.736-.065-1.03-.375q-.318-.336-.318-.848l.135-.808.05-.202c.16-.671 1.506-3.198 4.73-4.915-.07-.032-.143-.053-.21-.104-.478-.354-.544-.96-.544-1.36q.002-.138.006-.237c.033-.767.85-2.858 2.678-4.444 1-.868 2.158-1.43 3.43-1.74-.053-.057-.124-.092-.168-.158a1.57 1.57 0 0 1-.272-.9l.099-.615c.373-1.202 1.195-2.178 2.255-2.675.174-.082.358-.13.54-.185a1.5 1.5 0 0 1-.183-.712l.03-.436c.024-.437.065-1.192.665-1.723.424-.374.996-.532 1.751-.48l.147.015-.034-.206.154-.61.066-.132c.383-.78 1.182-2.411 4.61-1.931 2.31.324 2.904-.252 2.912-.257l.404-.582a.582.582 0 0 1 1.058.334l-.09 7.544a1 1 0 0 1-.01.1l-.4 2.151a.6.6 0 0 1-.12.261l-.037.047a58 58 0 0 0-3.35 4.653c1.255-1.582 2.892-2.933 5.028-3.6l.132-.041a.58.58 0 0 1 .58.137l2.618 2.548a.58.58 0 0 1 .171.495m-11.254 10.415c-.207.12-.555.225-1.032.045-.203-.076-.483-.254-.665-.667-.13-.3-.197-.712-.197-1.223 0-1.39.468-3.34 1.286-5.35 1.302-3.208 4.605-7.421 5.289-8.277l.336-1.803c.002-.086.048-4.127.062-5.369-.778.192-1.754.22-2.947.052-2.103-.295-2.566.335-2.859.91.089.05.18.097.18.097l.56.32q.053.029.098.07c.34.302.428.603.428.834 0 .11-.02.205-.043.277-.113.359-.434.61-.836.655a.8.8 0 0 1-.298-.021l-.049-.016s-.508-.149-2.01-.25c-.429-.03-.548.064-.56.075-.09.08-.109.421-.119.605l-.025.31c.003.019.047.054.076.086.955.12 2.122.493 2.646 1.115.226.27.346.57.346.872a1 1 0 0 1-.326.747c-.336.296-.927.354-1.36-.118a3 3 0 0 0-.542-.254c-.79-.327-1.52-.343-2.137-.053-.646.303-1.153.918-1.39 1.684l-.026.14c.107.126.632.237 1.55.31.428.032.68.056.899.146.435.181.69.531.681.936-.009.437-.311.797-.829.988l-.052.02a.6.6 0 0 1-.253.031l-.053-.005c-2.18-.215-4.028.322-5.494 1.595-1.48 1.285-2.088 2.954-2.118 3.288l-.002.032c1.081-.285 4.9-.799 5.71-.572.65.183.844.6.9.83q.03.128.031.246c0 .352-.183.658-.38.848l-.065.062a.6.6 0 0 1-.384.16l-.088.002c-6.96.223-9.591 4.654-9.748 5.314l-.04.162c1.206-.234 5.28-.94 6.231-.897.772.035 1.057.41 1.162.718.143.428-.024.893-.447 1.246l-.065.055a.58.58 0 0 1-.373.135h-.084c-3.305 0-8.09 2.54-9.25 4.437-1.245 2.038-1.663 5.071-1.19 5.609.032.035.04.035.062.035.274.004.852-.404 1.2-.772l.051-.05c4.266-3.535 10.067-5.056 13.905-6.063l.772-.203c3.842-1.02 4.413-1.612 4.844-2.397.176-.32.206-.608.26-1.131.094-.924.225-2.186 1.212-4.6 1.27-3.104 4.77-5.61 6.521-6.71l-1.158-1.126c-4.689 1.787-6.515 7.7-7.086 10.206l-.03.13-.063.334c-.06.362-.145.88-.625 1.158" style="fill:#5a5758;fill-opacity:1;fill-rule:nonzero;stroke:none;stroke-width:.173164" transform="matrix(7.69982 0 0 -7.69982 -285.623 5907.841)"/><path d="M86.754 741.372s5.525 3.024 7.095 6.863c1.57 3.838.872 4.652 1.512 5.815s1.628 1.803 5.35 2.791c3.723.99 9.945 2.443 14.365 6.106 0 0 1.57 1.687 2.442.699s.174-4.478-1.105-6.572c-1.28-2.094-6.338-4.827-9.944-4.827 0 0-.587-.49.23-.526.816-.038 4.952.663 6.187.91 1.233.247.93-.454.759-1.176-.17-.722-2.79-5.694-10.514-5.94 0 0-.4-.38.209-.55.607-.172 4.706.36 5.409.607.702.246.93 0 .891-.892-.037-.892-2.202-6.274-8.503-5.653 0 0-.58-.214-.116-.408.466-.194 3.413.097 2.889-1.59-.524-1.685-2.249-3.12-4.594-2.15 0 0-.64.231-.853.465-.214.232-.427-.059-.117-.428.31-.368 1.3-.794 2.385-.872 0 0 .601-.368.523-.93s.136-1.842-1.57-1.725-2.21.291-2.21.291-.349-.039 0-.349 1.512-.504 1.163-1.183c-.349-.678-.795-2.055-3.838-1.628-3.044.426-3.664-.562-3.664-.562l.077 6.745.389 2.093s3.905 4.808 5.297 8.232c1.392 3.426 1.463 5.96.892 6.173-.57.215-.5-.392-.642-.963s-1.82-9.135-8.1-11.097zM71.553 741.372s-5.525 3.024-7.095 6.863c-1.57 3.838-.873 4.652-1.512 5.815-.64 1.163-1.629 1.803-5.35 2.791-3.722.99-9.945 2.443-14.365 6.106 0 0-1.57 1.687-2.442.699s-.175-4.478 1.105-6.572c1.279-2.094 6.338-4.827 9.944-4.827 0 0 .586-.49-.23-.526-.816-.038-4.953.663-6.187.91s-.93-.454-.759-1.176 2.79-5.694 10.514-5.94c0 0 .398-.38-.209-.55-.608-.172-4.706.36-5.409.607-.702.246-.93 0-.891-.892.038-.892 2.202-6.274 8.502-5.653 0 0 .581-.214.116-.408s-3.411.097-2.888-1.59c.523-1.685 2.249-3.12 4.595-2.15 0 0 .639.231.852.465.213.232.427-.059.116-.428-.31-.368-1.298-.794-2.384-.872 0 0-.6-.368-.524-.93.078-.562-.135-1.842 1.571-1.725s2.21.291 2.21.291.349-.039 0-.349c-.35-.31-1.512-.504-1.163-1.183.349-.678.795-2.055 3.837-1.628 3.044.426 3.664-.562 3.664-.562l-.077 6.745-.388 2.093s-3.906 4.808-5.297 8.232c-1.391 3.426-1.463 5.96-.892 6.173.57.215.5-.392.642-.963s1.82-9.135 8.1-11.097z" style="fill:#d3d9d2;fill-opacity:1;fill-rule:nonzero;stroke:none;stroke-width:.173164" transform="matrix(7.69982 0 0 -7.69982 -285.623 5907.841)"/><path d="M73.425 734.736a2.33 2.33 0 0 1-2.326-2.326v-8.84a2.33 2.33 0 0 1 2.326-2.326h11.457a2.33 2.33 0 0 1 2.327 2.326v8.84a2.33 2.33 0 0 1-2.327 2.326zM72.03 723.57v8.84c0 .77.626 1.396 1.395 1.396h11.457c.77 0 1.395-.627 1.395-1.396v-8.84c0-.77-.626-1.396-1.395-1.396H73.425c-.77 0-1.395.626-1.395 1.396" style="fill:#5a5758;fill-opacity:1;fill-rule:nonzero;stroke:none;stroke-width:.173164" transform="matrix(7.69982 0 0 -7.69982 -285.623 5907.841)"/><path d="M73.425 733.806c-.77 0-1.395-.627-1.395-1.396v-8.84c0-.77.626-1.396 1.395-1.396h11.457c.77 0 1.395.626 1.395 1.396v8.84c0 .77-.626 1.396-1.395 1.396zm-.465-10.236v8.84c0 .256.209.465.465.465h11.457c.256 0 .465-.21.465-.465v-8.84a.466.466 0 0 0-.465-.465H73.425a.466.466 0 0 0-.465.465" style="fill:#231f20;fill-opacity:1;fill-rule:nonzero;stroke:none;stroke-width:.173164" transform="matrix(7.69982 0 0 -7.69982 -285.623 5907.841)"/><path d="M82.404 731.33h-6.5c-.694 0-1.258-.5-1.258-1.114v-4.104c0-.614.564-1.114 1.258-1.114h6.5c.693 0 1.257.5 1.257 1.114v4.104c0 .614-.564 1.114-1.257 1.114m.325-5.218c0-.073-.13-.183-.325-.183h-6.5c-.197 0-.327.11-.327.183v4.104c0 .073.13.183.327.183h6.5c.196 0 .325-.11.325-.183zm9.1 14.58c-.012 0-.06.008-.073.008-.807 0-1.377.251-1.74.769-.14.2-.204.524-.204.742v7.76c0 .681.134 1.242.396 1.668.103.016.37.06.424.07l.972-.002a3.66 3.66 0 0 1 3.658 3.657 3.66 3.66 0 0 1-3.658 3.658h-7.458c-1.002.4-1.209.979-1.415 1.592-.143.424-.289.86-.66 1.205-.883.82-2.167.972-2.677.999l.063-.007-.198.011-.09-.004c-.501-.027-1.784-.178-2.668-.998-.372-.346-.518-.782-.66-1.204-.206-.615-.413-1.193-1.414-1.594h-7.724a3.66 3.66 0 0 1-3.658-3.657 3.66 3.66 0 0 1 3.658-3.658h1.527q.046-.01.094-.017c.285-.428.436-1.001.436-1.718v-7.76c0-.219-.064-.544-.203-.743-.364-.518-.934-.769-1.742-.769-1.895-.107-3.358-1.643-3.358-3.499v-14.61a3.507 3.507 0 0 1 3.503-3.504 3.507 3.507 0 0 1 3.503 3.503v12l.035.555a.6.6 0 0 0 .156.204c.318.249.763.375 1.324.375h14.616c.513 0 .929-.106 1.239-.314 0 0 .148-.12.219-.18a4 4 0 0 1-.003-.186l.002-.35-.001-12.104a3.507 3.507 0 0 1 3.503-3.503 3.507 3.507 0 0 1 3.503 3.503v14.611a3.52 3.52 0 0 1-3.227 3.49m-23.935 11.165c-.004.006-.002.016-.008.022l.04-.035c-.009.008-.023.005-.032.013m.459-.172q.035-.007.072-.013c-.052.007-.054.003-.072.013m24.842-29.094c0-.905-.737-1.641-1.642-1.641-.906 0-1.642.736-1.642 1.641v12.058c.01.157.033.778-.069 1.143-.116.422-.434.802-.97 1.163-.622.419-1.389.63-2.278.63H71.978c-.99 0-1.82-.259-2.474-.772a2.43 2.43 0 0 1-.735-.957c-.11-.255-.167-.681-.167-1.265v-12a1.643 1.643 0 0 0-3.284 0v14.611c0 .87.68 1.59 1.55 1.637 1.744 0 2.711.85 3.211 1.562.503.714.542 1.567.542 1.811v7.761c0 1.136-.273 2.097-.81 2.857-.136.19-.434.466-.833.612a.4.4 0 0 1-.084.022l-.58.098a1 1 0 0 1-.078.007h-1.533c-.99 0-1.797.806-1.797 1.797 0 .989.806 1.795 1.797 1.795h8.014q.08 0 .157.028l.077.027c1.947.701 2.39 2.02 2.654 2.807.052.154.13.387.176.448.343.317 1 .464 1.496.49l.08.003c.597-.045 1.154-.236 1.447-.507.033-.048.111-.28.163-.434.264-.788.707-2.106 2.655-2.807l.076-.028a.5.5 0 0 1 .157-.027h7.75c.99 0 1.796-.806 1.796-1.796a1.8 1.8 0 0 0-1.797-1.796h-1.043c-.02-.001-.9-.149-.9-.149a.4.4 0 0 1-.076-.02 1.78 1.78 0 0 1-.954-.768c-.451-.727-.68-1.622-.68-2.66v-7.76c0-.245.04-1.098.542-1.812.5-.712 1.473-1.56 3.263-1.56-.012 0-.06-.004-.072-.003a1.65 1.65 0 0 0 1.511-1.635zm-8.313 11.68H73.425a1.863 1.863 0 0 1-1.861-1.86v-8.84c0-1.027.835-1.862 1.861-1.862h11.457c1.026 0 1.86.835 1.86 1.861v8.84c0 1.027-.834 1.861-1.86 1.861m.93-10.7a.93.93 0 0 0-.93-.931H73.425a.93.93 0 0 0-.93.93v8.84c0 .513.417.93.93.93h11.457c.513 0 .93-.417.93-.93z" style="fill:#5a5758;fill-opacity:1;fill-rule:nonzero;stroke:none;stroke-width:.173164" transform="matrix(7.69982 0 0 -7.69982 -285.623 5907.841)"/><path d="M75.904 731.794c-.95 0-1.723-.708-1.723-1.578v-4.104c0-.87.773-1.579 1.723-1.579h6.5c.95 0 1.722.708 1.722 1.58v4.103c0 .87-.772 1.578-1.722 1.578zm-.792-5.682v4.104c0 .358.355.649.792.649h6.5c.437 0 .792-.291.792-.649v-4.104c0-.358-.355-.648-.792-.648h-6.5c-.437 0-.792.29-.792.648" style="fill:#231f20;fill-opacity:1;fill-rule:nonzero;stroke:none;stroke-width:.173164" transform="matrix(7.69982 0 0 -7.69982 -285.623 5907.841)"/><path d="M75.904 730.865c-.437 0-.792-.291-.792-.649v-4.104c0-.358.355-.648.792-.648h6.5c.437 0 .792.29.792.648v4.104c0 .358-.355.649-.792.649zm6.36-.93v-3.54l-6.222-.001v3.54z" style="fill:#4f4c4d;fill-opacity:1;fill-rule:nonzero;stroke:none;stroke-width:.173164" transform="matrix(7.69982 0 0 -7.69982 -285.623 5907.841)"/><path d="M91.756 739.765v.004c-1.383 0-2.122.625-2.502 1.166-.291.413-.372.96-.372 1.277v7.76c0 .95.218 1.65.54 2.169.116.188.247.3.477.383.23.082.662.114.662.114h1.043a2.726 2.726 0 1 1 0 5.453h-7.667c-2.237.805-1.876 2.47-2.499 3.047-.674.626-1.745.734-2.094.752v.004l-.058-.002-.057.002v-.004c-.35-.018-1.42-.126-2.095-.752-.622-.578-.262-2.242-2.499-3.047h-7.932a2.728 2.728 0 0 1 0-5.453h1.533s.23 0 .422-.07a.93.93 0 0 0 .392-.276c.377-.533.64-1.275.64-2.32v-7.76c0-.318-.082-.864-.372-1.277-.38-.541-1.12-1.166-2.503-1.166v-.002a2.57 2.57 0 0 1-2.428-2.565V722.59a2.573 2.573 0 0 1 5.145 0v12s0 .687.09.895.236.42.457.595c.442.348 1.053.574 1.899.574h14.616c.76 0 1.328-.182 1.758-.47.256-.174.528-.401.594-.641.067-.24.035-.895.035-.895V722.59a2.572 2.572 0 1 1 5.144 0v14.612a2.57 2.57 0 0 1-2.369 2.563" style="fill:#fcd205;fill-opacity:1;fill-rule:nonzero;stroke:none;stroke-width:.173164" transform="matrix(7.69982 0 0 -7.69982 -285.623 5907.841)"/><path d="M84.882 733.806H73.425a1.395 1.395 0 0 1-1.395-1.396v-8.84c0-.771.624-1.396 1.395-1.396h11.457c.77 0 1.395.625 1.395 1.396v8.84c0 .77-.625 1.396-1.395 1.396m-1.686-7.694c0-.358-.355-.648-.792-.648h-6.5c-.438 0-.792.29-.792.648v4.104c0 .358.354.649.792.649h6.5c.437 0 .792-.29.792-.649z" style="fill:#fcd205;fill-opacity:1;fill-rule:nonzero;stroke:none;stroke-width:.173164" transform="matrix(7.69982 0 0 -7.69982 -285.623 5907.841)"/><path d="M83.365 752.268c0-.546-.336-.99-.75-.99h-6.923c-.414 0-.75.444-.75.99 0 .545.336.988.75.988h6.922c.415 0 .75-.443.75-.988M83.365 747.67c0-.548-.336-.99-.75-.99h-6.923c-.414 0-.75.442-.75.99 0 .545.336.987.75.987h6.922c.415 0 .75-.442.75-.987M83.365 743.072c0-.547-.336-.99-.75-.99h-6.923c-.414 0-.75.443-.75.99s.336.988.75.988h6.922c.415 0 .75-.442.75-.988" style="fill:#5a5758;fill-opacity:1;fill-rule:nonzero;stroke:none;stroke-width:.173164" transform="matrix(7.69982 0 0 -7.69982 -285.623 5907.841)"/></g></svg>